<svg enable-background="new 0 0 7680 4320" version="1.1" viewBox="0 0 7680 4320" xmlns="http://www.w3.org/2000/svg"><style type="text/css">.st0{enable-background:new    ;}
	.st1{fill:#00BBFF;}</style><g class="st0"><path class="st1" d="m2294.4 1688.2h305c127.8 0 222.9 16.7 285.1 50s93.3 84 93.3 151.9c0 93.7-58.6 164.8-175.9 213.2 146.4 27.4 219.6 94.1 219.6 200 0 72.2-33.2 131.6-99.7 178.5-66.5 46.8-182.8 70.2-349 70.2l-304.4 0.6c-7.6-18.6-11.4-36.5-11.4-53.8 0-11.4 3.2-19.7 9.5-25s15.6-7.9 27.8-7.9h46.2c2.5-54.4 3.8-174.2 3.8-359.4 0-167.1-1.3-277.6-3.8-331.6h-72.1c-7.6-18.6-11.4-36.3-11.4-53.2 0-11.8 3.2-20.3 9.5-25.6s15.7-7.9 27.9-7.9zm245.6 360.1c21.1 4.2 46.8 6.3 77.2 6.3 50.6 0 87-9.4 109.2-28.2s33.2-48.4 33.2-88.9c0-43.9-11.8-76.1-35.4-96.8s-59.3-31-107-31c-24.9 0-50.4 2.1-76.6 6.3-0.4 40.1-0.6 117.5-0.6 232.3zm0 115.8v148.1c0 48.5 5.7 80.4 17.1 95.6s42.6 22.8 93.7 22.8c53.2 0 91.9-9.8 116.1-29.4s36.4-51.8 36.4-96.5c0-48.1-14.7-84.6-44-109.5s-74.6-37.3-135.7-37.3c-27.1-0.2-55 1.9-83.6 6.2z"/><path class="st1" d="m3372.7 2465.3h74.7c7.2 13.9 10.8 29.5 10.8 46.8 0 14.8-3.1 25.1-9.2 31s-18 8.9-35.8 8.9h-303.8c-7.2-17.7-10.8-34.4-10.8-50 0-13.1 3-22.5 8.9-28.2s15.4-8.5 28.5-8.5h51.9c2.1-54 3.2-111.6 3.2-172.8 0-93.2-0.8-155.1-2.2-185.7-1.5-30.6-4.7-52.9-9.8-67.1-5.1-14.1-12.9-23-23.4-26.6s-25.9-5.4-46.2-5.4c-7.2-11.8-10.8-25.5-10.8-41.1 0-23.6 9.7-38.2 29.1-43.7s58.8-8.2 118.3-8.2c44.7 0 75.2 1.7 91.4 5.1s25.5 10 27.8 19.9 3.5 23.7 3.5 41.5v311.3c0.6 61.2 1.8 118.8 3.9 172.8zm-115.8-632.8c-38 0-65.4-7.3-82.3-21.8s-25.3-35.1-25.3-61.7c0-27.8 10.8-50.7 32.3-68.7 21.5-17.9 52.1-26.9 91.8-26.9 40.5 0 69.2 7.7 86.1 23.1s25.3 35.5 25.3 60.4c0 27.4-10.1 50.2-30.4 68.3s-52.8 27.3-97.5 27.3z"/><path class="st1" d="m3552.5 1926.1h44.3l62.6-190.5c21.5 6.3 41.5 14.5 59.8 24.7s32.3 21.7 41.8 34.8 14.2 45.3 14.2 96.8v34.2h213.9c7.2 16.9 10.8 34.8 10.8 53.8 0 16-3 26.8-8.9 32.3s-17.3 8.2-34.2 8.2h-181.6v250c0 72.6 6.1 121.9 18.3 148.1s32.6 39.8 61.1 40.8 63.2-9 104.1-30.1c12.2 16.5 18.3 35.2 18.3 56.3 0 28.7-15.1 48-45.2 57.9s-77.1 14.9-140.8 14.9c-69.6 0-119.3-13.9-149-41.8s-44.6-81.8-44.6-162v-110.1c0-69.6-2.1-144.3-6.3-224h-64.5c-7.6-18.1-11.4-36.5-11.4-55.1 0-14.3 2.8-24.5 8.5-30.4 5.7-5.8 15.3-8.8 28.8-8.8z"/></g><g class="st0"><path d="m4299.9 2552h-193v-933h193v933z"/><path d="m5200.9 2469.2c-70.4 72.6-172.3 108.8-305.6 108.8s-235.2-36.3-305.6-108.8c-94.5-89-141.7-217.2-141.7-384.7 0-170.8 47.2-299 141.7-384.7 70.4-72.5 172.3-108.8 305.6-108.8s235.2 36.3 305.6 108.8c94.1 85.6 141.1 213.9 141.1 384.7 0 167.4-47.1 295.7-141.1 384.7zm-121-141.7c45.4-57 68.1-138 68.1-243.1 0-104.6-22.7-185.5-68.1-242.7s-106.7-85.8-184-85.8-138.9 28.5-184.9 85.5-69 138-69 243c0 105.1 23 186.1 69 243.1s107.7 85.4 184.9 85.4c77.3 0.1 138.6-28.4 184-85.4z"/></g></svg>
